<svg width="95" height="40" viewBox="0 0 95 40" fill="none" xmlns="http://www.w3.org/2000/svg">
<path d="M12.325 15.8898H-0.000871844V37.1083C-0.010411 37.4226 0.0432461 37.7356 0.156918 38.0287C0.27059 38.3218 0.441962 38.5892 0.660873 38.8148C0.879784 39.0405 1.14178 39.2199 1.43132 39.3424C1.72086 39.4649 2.03205 39.5281 2.34644 39.5281C2.66084 39.5281 2.97203 39.4649 3.26157 39.3424C3.55111 39.2199 3.81311 39.0405 4.03202 38.8148C4.25093 38.5892 4.4223 38.3218 4.53597 38.0287C4.64964 37.7356 4.7033 37.4226 4.69376 37.1083V20.5846H12.325C12.6392 20.5941 12.9522 20.5404 13.2453 20.4268C13.5384 20.3131 13.8057 20.1417 14.0314 19.9228C14.2571 19.7039 14.4365 19.4419 14.559 19.1523C14.6815 18.8628 14.7446 18.5516 14.7446 18.2372C14.7446 17.9228 14.6815 17.6115 14.559 17.322C14.4365 17.0324 14.2571 16.7704 14.0314 16.5515C13.8057 16.3326 13.5384 16.1612 13.2453 16.0475C12.9522 15.9339 12.6392 15.8802 12.325 15.8898Z" fill="black"/>
<path d="M81.9069 15.3535C79.4691 15.3535 77.086 16.0764 75.059 17.4309C73.0321 18.7853 71.4522 20.7104 70.5193 22.9628C69.5864 25.2151 69.3423 27.6935 69.8179 30.0846C70.2935 32.4757 71.4674 34.672 73.1912 36.3959C74.915 38.1197 77.1113 39.2937 79.5023 39.7693C81.8932 40.2449 84.3715 40.0008 86.6238 39.0679C88.8761 38.1349 90.8011 36.555 92.1555 34.528C93.5099 32.5009 94.2327 30.1178 94.2327 27.6798C94.2299 24.4116 92.9304 21.278 90.6194 18.967C88.3085 16.656 85.175 15.3564 81.9069 15.3535ZM81.9069 35.307C80.3973 35.3074 78.9215 34.8601 77.6662 34.0216C76.4109 33.1831 75.4324 31.9912 74.8546 30.5965C74.2768 29.2018 74.1257 27.667 74.4202 26.1864C74.7148 24.7058 75.4418 23.3458 76.5094 22.2785C77.577 21.2111 78.9372 20.4844 80.4178 20.1903C81.8985 19.8961 83.4331 20.0477 84.8276 20.626C86.2221 21.2042 87.4137 22.183 88.2518 23.4386C89.0899 24.6942 89.5368 26.1702 89.536 27.6798C89.5325 29.7018 88.7275 31.6399 87.2974 33.0693C85.8673 34.4986 83.9288 35.3026 81.9069 35.3049V35.307Z" fill="black"/>
<path d="M27.7633 15.3535C25.3255 15.3535 22.9424 16.0764 20.9155 17.4309C18.8885 18.7853 17.3087 20.7104 16.3758 22.9628C15.4428 25.2151 15.1987 27.6935 15.6743 30.0846C16.1499 32.4757 17.3239 34.672 19.0477 36.3959C20.7715 38.1197 22.9677 39.2937 25.3587 39.7693C27.7497 40.2449 30.228 40.0008 32.4802 39.0679C34.7325 38.1349 36.6575 36.555 38.0119 34.528C39.3663 32.5009 40.0892 30.1178 40.0892 27.6798C40.0857 24.4117 38.786 21.2785 36.4752 18.9676C34.1644 16.6567 31.0313 15.357 27.7633 15.3535ZM27.7633 35.307C26.2538 35.3074 24.778 34.8601 23.5226 34.0216C22.2673 33.1831 21.2889 31.9912 20.7111 30.5965C20.1333 29.2018 19.9821 27.667 20.2767 26.1864C20.5712 24.7058 21.2983 23.3458 22.3659 22.2785C23.4335 21.2111 24.7936 20.4844 26.2743 20.1903C27.7549 19.8961 29.2895 20.0477 30.684 20.626C32.0785 21.2042 33.2701 22.183 34.1083 23.4386C34.9464 24.6942 35.3932 26.1702 35.3924 27.6798C35.389 29.7018 34.5839 31.6399 33.1538 33.0693C31.7237 34.4986 29.7852 35.3026 27.7633 35.3049V35.307Z" fill="black"/>
<path d="M48.9005 2.34633C48.8993 1.72439 48.6518 1.12826 48.212 0.688486C47.7723 0.248712 47.1762 0.00114326 46.5542 0C45.2568 0 44.2058 1.05314 44.208 2.88912V37.312H44.2188C44.2633 37.9189 44.5425 38.4846 44.9971 38.889C45.4518 39.2935 46.0461 39.5049 46.654 39.4785C47.2619 39.452 47.8356 39.1898 48.2534 38.7474C48.6712 38.305 48.9002 37.7172 48.8918 37.1087V20.585H60.3311V37.1087C60.3216 37.423 60.3752 37.736 60.4889 38.0291C60.6026 38.3222 60.7739 38.5896 60.9928 38.8152C61.2117 39.0409 61.4737 39.2203 61.7633 39.3428C62.0528 39.4653 62.364 39.5285 62.6784 39.5285C62.9928 39.5285 63.304 39.4653 63.5935 39.3428C63.8831 39.2203 64.1451 39.0409 64.364 38.8152C64.5829 38.5896 64.7543 38.3222 64.8679 38.0291C64.9816 37.736 65.0353 37.423 65.0257 37.1087V15.8901H48.9005V2.34633Z" fill="black"/>
</svg>
